# xmcd
#
# Track frame offsets:
#	150
#	32242
#	49000
#	84997
#	97995
#	104020
#	140725
#	177000
#	189330
#	207730
#
# Disc length: 3202 seconds
#
# Revision: 0
# Processed by: cddbd v1.5.2PL0 Copyright (c) Steve Scherf et al.
# Submitted via: EZCDAudioConverter 6.0.2.1
#
DISCID=890c800a
DTITLE=Sallinen, Aulis:  - Sallinen: The Red Line - Hynninen/Valjakka/Finnish N
DTITLE=OCO/Kamu
DYEAR=1990
DGENRE=Opera
TTITLE0=Sallinen, Aulis: The Red Line, Op 46 (1978) after Ilmari Kianto:  (1) 
TTITLE0=Topi and Riika - 001 Act1_1_ Min‰ sen viel‰ tapan!
TTITLE1=Sallinen, Aulis: The Red Line, Op 46 (1978) after Ilmari Kianto:  (1) 
TTITLE1=Topi and Riika - 002 Act1_1_ Voi t‰t‰ el‰m‰‰!
TTITLE2=Sallinen, Aulis: The Red Line, Op 46 (1978) after Ilmari Kianto:  (1) 
TTITLE2=Topi and Riika - 003 Act1_1_ Taas sin‰ kerrot minulle
TTITLE3=Sallinen, Aulis: The Red Line, Op 46 (1978) after Ilmari Kianto:  (2) 
TTITLE3=Topi's Dream - 004 Act1_2_ Onko sill‰ Topias Topiaksenpojalla jotain a
TTITLE3=siaa
TTITLE4=Sallinen, Aulis: The Red Line, Op 46 (1978) after Ilmari Kianto:  (2) 
TTITLE4=Topi's Dream - 005 Act1_2_ Ei! Hyv‰ Jumala, ei!
TTITLE5=Sallinen, Aulis: The Red Line, Op 46 (1978) after Ilmari Kianto:  (2) 
TTITLE5=Topi's Dream - 006 Act1_2_ Pahasti tein, kun sanoin
TTITLE6=Sallinen, Aulis: The Red Line, Op 46 (1978) after Ilmari Kianto:  (3) 
TTITLE6=kohtaus - 007 Act1_3_ Terve talohon!
TTITLE7=Sallinen, Aulis: The Red Line, Op 46 (1978) after Ilmari Kianto:  (3) 
TTITLE7=kohtaus - 008 Act1_3_ Vestmanviiki tiet‰ ratsasti
TTITLE8=Sallinen, Aulis: The Red Line, Op 46 (1978) after Ilmari Kianto:  (3) 
TTITLE8=kohtaus - 009 Act1_3_ Sin‰ se vain kuljet talosta taloon
TTITLE9=Sallinen, Aulis: The Red Line, Op 46 (1978) after Ilmari Kianto:  (3) 
TTITLE9=kohtaus - 010 Act1_3_ No annahan kun kerron
EXTD=
EXTT0=
EXTT1=
EXTT2=
EXTT3=
EXTT4=
EXTT5=
EXTT6=
EXTT7=
EXTT8=
EXTT9=
PLAYORDER=
